<svg height="170pt" preserveAspectRatio="xMidYMid meet" viewBox="0 0 202 170" width="202pt" xmlns="http://www.w3.org/2000/svg"><path d="m657 1253c-21-65-42-127-46-138s-39-116-77-232l-68-213h-43c-23 0-45-4-48-10-4-6 37-10 114-10 74 0 121 4 121 10s-27 10-60 10-60 3-60 8c0 4 13 48 29 97l28 90 105 3c94 2 106 1 113-15 4-10 20-55 35-100l29-83h-55c-30 0-54-4-54-10s26-10 59-10h58l44-126c24-69 49-126 54-126 6 0 35 70 65 156s57 152 61 148c3-4 30-76 60-159 30-84 58-152 63-150s63 159 130 350l121 347h38c20 0 37 5 37 10 0 6-37 10-90 10s-90-4-90-10c0-5 20-10 43-10h44l-95-270c-53-149-98-267-102-263s-29 71-55 148l-48 140 43 123 43 122h33c19 0 34 5 34 10 0 6-86 10-238 10h-238l-42 130c-24 72-47 130-51 130-3 0-24-53-44-117zm17-120c6-20 4-23-18-23-30 0-29-2-15 40 12 34 19 30 33-17zm40-130c16-49 31-94 33-100 4-10-18-13-92-13-87 0-96 2-91 18 56 185 55 182 89 182 32 0 33-1 61-87zm276-88c53-157 57-172 45-205-11-33-15-35-55-35h-43l-68 208-67 208 66-3 65-3zm190 170c0-11-63-190-69-197-4-4-23 39-43 97l-37 105h74c41 0 75-2 75-5zm-171-447c0-7-8-31-18-53l-18-40-16 50c-9 26-17 50-17 52s16 3 35 3c22 0 35-5 34-12z" transform="matrix(.1 0 0 -.1 0 170)"/></svg>